{
    "asset" : {
        "generator" : "Khronos glTF Blender I/O v3.4.50",
        "version" : "2.0"
    },
    "scene" : 0,
    "scenes" : [
        {
            "name" : "Scene",
            "nodes" : [
                5
            ]
        }
    ],
    "nodes" : [
        {
            "mesh" : 0,
            "name" : "EyeLeft",
            "translation" : [
                0,
                -1.6680914163589478,
                0
            ]
        },
        {
            "mesh" : 1,
            "name" : "EyeRight",
            "translation" : [
                0,
                -1.6680914163589478,
                0
            ]
        },
        {
            "mesh" : 2,
            "name" : "Wolf3D_Hair",
            "translation" : [
                0,
                -1.6680914163589478,
                0
            ]
        },
        {
            "mesh" : 3,
            "name" : "Wolf3D_Head",
            "translation" : [
                0,
                -1.6680914163589478,
                0
            ]
        },
        {
            "mesh" : 4,
            "name" : "Wolf3D_Teeth",
            "translation" : [
                0,
                -1.6680914163589478,
                0
            ]
        },
        {
            "children" : [
                0,
                1,
                2,
                3,
                4
            ],
            "name" : "Armature"
        }
    ],
    "materials" : [
        {
            "doubleSided" : true,
            "name" : "Wolf3D_Eye",
            "pbrMetallicRoughness" : {
                "baseColorTexture" : {
                    "index" : 0
                },
                "metallicFactor" : 0
            }
        },
        {
            "doubleSided" : true,
            "name" : "Wolf3D_Eye.001",
            "pbrMetallicRoughness" : {
                "baseColorTexture" : {
                    "index" : 1
                },
                "metallicFactor" : 0
            }
        },
        {
            "name" : "Wolf3D_Hair",
            "normalTexture" : {
                "index" : 2
            },
            "pbrMetallicRoughness" : {
                "baseColorTexture" : {
                    "index" : 3
                },
                "metallicFactor" : 0,
                "roughnessFactor" : 0.8454545736312866
            }
        },
        {
            "doubleSided" : true,
            "name" : "Wolf3D_Skin",
            "pbrMetallicRoughness" : {
                "baseColorTexture" : {
                    "index" : 4
                },
                "metallicFactor" : 0,
                "roughnessFactor" : 0.699999988079071
            }
        },
        {
            "doubleSided" : true,
            "name" : "Wolf3D_Teeth",
            "pbrMetallicRoughness" : {
                "baseColorTexture" : {
                    "index" : 5
                },
                "metallicFactor" : 0
            }
        }
    ],
    "meshes" : [
        {
            "name" : "Mesh_0",
            "primitives" : [
                {
                    "attributes" : {
                        "POSITION" : 0,
                        "TEXCOORD_0" : 1,
                        "NORMAL" : 2
                    },
                    "indices" : 3,
                    "material" : 0
                }
            ]
        },
        {
            "name" : "Mesh_1",
            "primitives" : [
                {
                    "attributes" : {
                        "POSITION" : 4,
                        "TEXCOORD_0" : 5,
                        "NORMAL" : 6
                    },
                    "indices" : 7,
                    "material" : 1
                }
            ]
        },
        {
            "name" : "Mesh_8",
            "primitives" : [
                {
                    "attributes" : {
                        "POSITION" : 8,
                        "TEXCOORD_0" : 9,
                        "NORMAL" : 10
                    },
                    "indices" : 11,
                    "material" : 2
                }
            ]
        },
        {
            "name" : "Mesh_2",
            "primitives" : [
                {
                    "attributes" : {
                        "POSITION" : 12,
                        "TEXCOORD_0" : 13,
                        "NORMAL" : 14
                    },
                    "indices" : 15,
                    "material" : 3
                }
            ]
        },
        {
            "name" : "Mesh_3",
            "primitives" : [
                {
                    "attributes" : {
                        "POSITION" : 16,
                        "TEXCOORD_0" : 17,
                        "NORMAL" : 18
                    },
                    "indices" : 19,
                    "material" : 4
                }
            ]
        }
    ],
    "textures" : [
        {
            "sampler" : 0,
            "source" : 0
        },
        {
            "sampler" : 0,
            "source" : 0
        },
        {
            "sampler" : 1,
            "source" : 1
        },
        {
            "sampler" : 0,
            "source" : 2
        },
        {
            "sampler" : 0,
            "source" : 3
        },
        {
            "sampler" : 1,
            "source" : 4
        }
    ],
    "images" : [
        {
            "bufferView" : 4,
            "mimeType" : "image/jpeg",
            "name" : "Image_0"
        },
        {
            "bufferView" : 13,
            "mimeType" : "image/jpeg",
            "name" : "Image_13"
        },
        {
            "bufferView" : 14,
            "mimeType" : "image/png",
            "name" : "Image_14"
        },
        {
            "bufferView" : 19,
            "mimeType" : "image/jpeg",
            "name" : "Image_1"
        },
        {
            "bufferView" : 24,
            "mimeType" : "image/jpeg",
            "name" : "Image_2"
        }
    ],
    "accessors" : [
        {
            "bufferView" : 0,
            "componentType" : 5126,
            "count" : 618,
            "max" : [
                0.04998724162578583,
                1.7449414730072021,
                0.10856064409017563
            ],
            "min" : [
                0.010781231336295605,
                1.7057955265045166,
                0.08907545357942581
            ],
            "type" : "VEC3"
        },
        {
            "bufferView" : 1,
            "componentType" : 5126,
            "count" : 618,
            "type" : "VEC2"
        },
        {
            "bufferView" : 2,
            "componentType" : 5126,
            "count" : 618,
            "type" : "VEC3"
        },
        {
            "bufferView" : 3,
            "componentType" : 5123,
            "count" : 618,
            "type" : "SCALAR"
        },
        {
            "bufferView" : 5,
            "componentType" : 5126,
            "count" : 618,
            "max" : [
                -0.011056282557547092,
                1.7449824810028076,
                0.10856068879365921
            ],
            "min" : [
                -0.050106462091207504,
                1.7057558298110962,
                0.08907551318407059
            ],
            "type" : "VEC3"
        },
        {
            "bufferView" : 6,
            "componentType" : 5126,
            "count" : 618,
            "type" : "VEC2"
        },
        {
            "bufferView" : 7,
            "componentType" : 5126,
            "count" : 618,
            "type" : "VEC3"
        },
        {
            "bufferView" : 8,
            "componentType" : 5123,
            "count" : 618,
            "type" : "SCALAR"
        },
        {
            "bufferView" : 9,
            "componentType" : 5126,
            "count" : 2895,
            "max" : [
                0.08245986700057983,
                1.8568668365478516,
                0.1150626689195633
            ],
            "min" : [
                -0.08245988190174103,
                1.6658682823181152,
                -0.08147021383047104
            ],
            "type" : "VEC3"
        },
        {
            "bufferView" : 10,
            "componentType" : 5126,
            "count" : 2895,
            "type" : "VEC2"
        },
        {
            "bufferView" : 11,
            "componentType" : 5126,
            "count" : 2895,
            "type" : "VEC3"
        },
        {
            "bufferView" : 12,
            "componentType" : 5123,
            "count" : 2895,
            "type" : "SCALAR"
        },
        {
            "bufferView" : 15,
            "componentType" : 5126,
            "count" : 11466,
            "max" : [
                0.08995209634304047,
                1.8330841064453125,
                0.14513541758060455
            ],
            "min" : [
                -0.08996526151895523,
                1.6063213348388672,
                -0.07220719009637833
            ],
            "type" : "VEC3"
        },
        {
            "bufferView" : 16,
            "componentType" : 5126,
            "count" : 11466,
            "type" : "VEC2"
        },
        {
            "bufferView" : 17,
            "componentType" : 5126,
            "count" : 11466,
            "type" : "VEC3"
        },
        {
            "bufferView" : 18,
            "componentType" : 5123,
            "count" : 11466,
            "type" : "SCALAR"
        },
        {
            "bufferView" : 20,
            "componentType" : 5126,
            "count" : 300,
            "max" : [
                0.028219087049365044,
                1.6782156229019165,
                0.12320738285779953
            ],
            "min" : [
                -0.028219087049365044,
                1.6421867609024048,
                0.055690914392471313
            ],
            "type" : "VEC3"
        },
        {
            "bufferView" : 21,
            "componentType" : 5126,
            "count" : 300,
            "type" : "VEC2"
        },
        {
            "bufferView" : 22,
            "componentType" : 5126,
            "count" : 300,
            "type" : "VEC3"
        },
        {
            "bufferView" : 23,
            "componentType" : 5123,
            "count" : 300,
            "type" : "SCALAR"
        }
    ],
    "bufferViews" : [
        {
            "buffer" : 0,
            "byteLength" : 7416,
            "byteOffset" : 0,
            "target" : 34962
        },
        {
            "buffer" : 0,
            "byteLength" : 4944,
            "byteOffset" : 7416,
            "target" : 34962
        },
        {
            "buffer" : 0,
            "byteLength" : 7416,
            "byteOffset" : 12360,
            "target" : 34962
        },
        {
            "buffer" : 0,
            "byteLength" : 1236,
            "byteOffset" : 19776,
            "target" : 34963
        },
        {
            "buffer" : 0,
            "byteLength" : 123030,
            "byteOffset" : 21012
        },
        {
            "buffer" : 0,
            "byteLength" : 7416,
            "byteOffset" : 144044,
            "target" : 34962
        },
        {
            "buffer" : 0,
            "byteLength" : 4944,
            "byteOffset" : 151460,
            "target" : 34962
        },
        {
            "buffer" : 0,
            "byteLength" : 7416,
            "byteOffset" : 156404,
            "target" : 34962
        },
        {
            "buffer" : 0,
            "byteLength" : 1236,
            "byteOffset" : 163820,
            "target" : 34963
        },
        {
            "buffer" : 0,
            "byteLength" : 34740,
            "byteOffset" : 165056,
            "target" : 34962
        },
        {
            "buffer" : 0,
            "byteLength" : 23160,
            "byteOffset" : 199796,
            "target" : 34962
        },
        {
            "buffer" : 0,
            "byteLength" : 34740,
            "byteOffset" : 222956,
            "target" : 34962
        },
        {
            "buffer" : 0,
            "byteLength" : 5790,
            "byteOffset" : 257696,
            "target" : 34963
        },
        {
            "buffer" : 0,
            "byteLength" : 158034,
            "byteOffset" : 263488
        },
        {
            "buffer" : 0,
            "byteLength" : 1411,
            "byteOffset" : 421524
        },
        {
            "buffer" : 0,
            "byteLength" : 137592,
            "byteOffset" : 422936,
            "target" : 34962
        },
        {
            "buffer" : 0,
            "byteLength" : 91728,
            "byteOffset" : 560528,
            "target" : 34962
        },
        {
            "buffer" : 0,
            "byteLength" : 137592,
            "byteOffset" : 652256,
            "target" : 34962
        },
        {
            "buffer" : 0,
            "byteLength" : 22932,
            "byteOffset" : 789848,
            "target" : 34963
        },
        {
            "buffer" : 0,
            "byteLength" : 102561,
            "byteOffset" : 812780
        },
        {
            "buffer" : 0,
            "byteLength" : 3600,
            "byteOffset" : 915344,
            "target" : 34962
        },
        {
            "buffer" : 0,
            "byteLength" : 2400,
            "byteOffset" : 918944,
            "target" : 34962
        },
        {
            "buffer" : 0,
            "byteLength" : 3600,
            "byteOffset" : 921344,
            "target" : 34962
        },
        {
            "buffer" : 0,
            "byteLength" : 600,
            "byteOffset" : 924944,
            "target" : 34963
        },
        {
            "buffer" : 0,
            "byteLength" : 61799,
            "byteOffset" : 925544
        }
    ],
    "samplers" : [
        {
            "magFilter" : 9728,
            "minFilter" : 9984
        },
        {
            "magFilter" : 9729,
            "minFilter" : 9987
        }
    ],
    "buffers" : [
        {
            "byteLength" : 987344,
            "uri" : "data:application/octet-stream;base64,"
        }
    ]
}
