{
    "asset" : {
        "generator" : "Khronos glTF Blender I/O v3.4.50",
        "version" : "2.0"
    },
    "scene" : 0,
    "scenes" : [
        {
            "name" : "Scene",
            "nodes" : [
                10,
                11
            ]
        }
    ],
    "nodes" : [
        {
            "mesh" : 0,
            "name" : "Object_5"
        },
        {
            "children" : [
                0
            ],
            "name" : "Cube_1_0",
            "rotation" : [
                -0.5000000596046448,
                0.5,
                -0.4999999403953552,
                0.5
            ],
            "scale" : [
                100.0000228881836,
                100.00001525878906,
                100.0000228881836
            ],
            "translation" : [
                -142.94056701660156,
                -32.74818801879883,
                -5922.8701171875
            ]
        },
        {
            "mesh" : 1,
            "name" : "Object_10",
            "translation" : [
                1.0962190572172403e-05,
                0,
                0.0004839022585656494
            ]
        },
        {
            "children" : [
                2
            ],
            "name" : "ramka2_2",
            "translation" : [
                -182.6838836669922,
                35.48698043823242,
                1926.6162109375
            ]
        },
        {
            "mesh" : 2,
            "name" : "Object_7",
            "translation" : [
                -1.615792280063033e-05,
                0,
                0.0004839022585656494
            ]
        },
        {
            "mesh" : 3,
            "name" : "Object_8",
            "translation" : [
                -1.615792280063033e-05,
                0,
                0.0004839022585656494
            ]
        },
        {
            "children" : [
                4,
                5
            ],
            "name" : "ramka_1",
            "translation" : [
                326.2698059082031,
                35.48698043823242,
                1926.6162109375
            ]
        },
        {
            "children" : [
                1,
                3,
                6
            ],
            "name" : "css_3",
            "rotation" : [
                0.70710688829422,
                0,
                0,
                0.7071066498756409
            ],
            "scale" : [
                0.009999999776482582,
                0.009999998845160007,
                0.009999998845160007
            ],
            "translation" : [
                -0.7636633515357971,
                -15.531391143798828,
                -0.24781624972820282
            ]
        },
        {
            "children" : [
                7
            ],
            "name" : "GLTF_SceneRootNode",
            "rotation" : [
                0.70710688829422,
                0,
                0,
                0.7071066498756409
            ]
        },
        {
            "children" : [
                8
            ],
            "name" : "root"
        },
        {
            "children" : [
                9
            ],
            "name" : "Sketchfab_model",
            "rotation" : [
                -0.498180091381073,
                -0.5018133521080017,
                -0.5018133521080017,
                0.498180091381073
            ],
            "translation" : [
                0,
                -42.55861282348633,
                0
            ]
        },
        {
            "mesh" : 4,
            "name" : "Cube",
            "translation" : [
                0,
                -42.55861282348633,
                0
            ]
        }
    ],
    "materials" : [
        {
            "name" : "Material.005",
            "pbrMetallicRoughness" : {
                "metallicFactor" : 0,
                "roughnessFactor" : 0
            }
        },
        {
            "name" : "Material.001",
            "pbrMetallicRoughness" : {
                "baseColorFactor" : [
                    0.019382299855351448,
                    0.07421360164880753,
                    0.7758219838142395,
                    1
                ],
                "metallicFactor" : 0,
                "roughnessFactor" : 0
            }
        },
        {
            "name" : "Material.002",
            "pbrMetallicRoughness" : {
                "baseColorFactor" : [
                    0.019382299855351448,
                    0.07421360164880753,
                    0.7758219838142395,
                    1
                ],
                "metallicFactor" : 0,
                "roughnessFactor" : 0
            }
        },
        {
            "name" : "Material.003",
            "pbrMetallicRoughness" : {
                "baseColorFactor" : [
                    0.022173799574375153,
                    0.13013699650764465,
                    0.8796229958534241,
                    1
                ],
                "metallicFactor" : 0,
                "roughnessFactor" : 0
            }
        },
        {
            "doubleSided" : true,
            "name" : "Material",
            "pbrMetallicRoughness" : {
                "baseColorFactor" : [
                    0.800000011920929,
                    0.800000011920929,
                    0.800000011920929,
                    1
                ],
                "metallicFactor" : 0,
                "roughnessFactor" : 0.5
            }
        }
    ],
    "meshes" : [
        {
            "name" : "Object_0",
            "primitives" : [
                {
                    "attributes" : {
                        "POSITION" : 0,
                        "TEXCOORD_0" : 1,
                        "NORMAL" : 2
                    },
                    "indices" : 3,
                    "material" : 0
                }
            ]
        },
        {
            "name" : "Object_3",
            "primitives" : [
                {
                    "attributes" : {
                        "POSITION" : 4,
                        "NORMAL" : 5
                    },
                    "indices" : 6,
                    "material" : 1
                }
            ]
        },
        {
            "name" : "Object_1",
            "primitives" : [
                {
                    "attributes" : {
                        "POSITION" : 7,
                        "TEXCOORD_0" : 8,
                        "TEXCOORD_1" : 9,
                        "NORMAL" : 10
                    },
                    "indices" : 11,
                    "material" : 2
                }
            ]
        },
        {
            "name" : "Object_2",
            "primitives" : [
                {
                    "attributes" : {
                        "POSITION" : 12,
                        "TEXCOORD_0" : 13,
                        "TEXCOORD_1" : 14,
                        "NORMAL" : 15
                    },
                    "indices" : 16,
                    "material" : 3
                }
            ]
        },
        {
            "name" : "Cube",
            "primitives" : [
                {
                    "attributes" : {
                        "POSITION" : 17,
                        "TEXCOORD_0" : 18,
                        "NORMAL" : 19
                    },
                    "indices" : 20,
                    "material" : 4
                }
            ]
        }
    ],
    "accessors" : [
        {
            "bufferView" : 0,
            "componentType" : 5126,
            "count" : 741,
            "max" : [
                48.62491989135742,
                48.94093704223633,
                22.461292266845703
            ],
            "min" : [
                -49.0250358581543,
                -62.159603118896484,
                6.138702392578125
            ],
            "type" : "VEC3"
        },
        {
            "bufferView" : 1,
            "componentType" : 5126,
            "count" : 741,
            "type" : "VEC2"
        },
        {
            "bufferView" : 2,
            "componentType" : 5126,
            "count" : 741,
            "type" : "VEC3"
        },
        {
            "bufferView" : 3,
            "componentType" : 5123,
            "count" : 4116,
            "type" : "SCALAR"
        },
        {
            "bufferView" : 4,
            "componentType" : 5126,
            "count" : 200,
            "max" : [
                727.7484130859375,
                7880.685546875,
                1665.956787109375
            ],
            "min" : [
                -581.3209228515625,
                -7973.552734375,
                -16124.771484375
            ],
            "type" : "VEC3"
        },
        {
            "bufferView" : 5,
            "componentType" : 5126,
            "count" : 200,
            "type" : "VEC3"
        },
        {
            "bufferView" : 6,
            "componentType" : 5123,
            "count" : 1188,
            "type" : "SCALAR"
        },
        {
            "bufferView" : 7,
            "componentType" : 5126,
            "count" : 110,
            "max" : [
                631.2737426757812,
                -38.74835205078125,
                432.40496826171875
            ],
            "min" : [
                -314.1673278808594,
                -6562.13037109375,
                -14876.00390625
            ],
            "type" : "VEC3"
        },
        {
            "bufferView" : 8,
            "componentType" : 5126,
            "count" : 110,
            "type" : "VEC2"
        },
        {
            "bufferView" : 9,
            "componentType" : 5126,
            "count" : 110,
            "type" : "VEC2"
        },
        {
            "bufferView" : 10,
            "componentType" : 5126,
            "count" : 110,
            "type" : "VEC3"
        },
        {
            "bufferView" : 11,
            "componentType" : 5123,
            "count" : 594,
            "type" : "SCALAR"
        },
        {
            "bufferView" : 12,
            "componentType" : 5126,
            "count" : 122,
            "max" : [
                631.2737426757812,
                6469.26318359375,
                432.40496826171875
            ],
            "min" : [
                -314.1622314453125,
                -46.541805267333984,
                -14891.2197265625
            ],
            "type" : "VEC3"
        },
        {
            "bufferView" : 13,
            "componentType" : 5126,
            "count" : 122,
            "type" : "VEC2"
        },
        {
            "bufferView" : 14,
            "componentType" : 5126,
            "count" : 122,
            "type" : "VEC2"
        },
        {
            "bufferView" : 15,
            "componentType" : 5126,
            "count" : 122,
            "type" : "VEC3"
        },
        {
            "bufferView" : 16,
            "componentType" : 5123,
            "count" : 594,
            "type" : "SCALAR"
        },
        {
            "bufferView" : 17,
            "componentType" : 5126,
            "count" : 24,
            "max" : [
                1,
                1,
                1
            ],
            "min" : [
                -1,
                -1,
                -1
            ],
            "type" : "VEC3"
        },
        {
            "bufferView" : 18,
            "componentType" : 5126,
            "count" : 24,
            "type" : "VEC2"
        },
        {
            "bufferView" : 19,
            "componentType" : 5126,
            "count" : 24,
            "type" : "VEC3"
        },
        {
            "bufferView" : 20,
            "componentType" : 5123,
            "count" : 36,
            "type" : "SCALAR"
        }
    ],
    "bufferViews" : [
        {
            "buffer" : 0,
            "byteLength" : 8892,
            "byteOffset" : 0,
            "target" : 34962
        },
        {
            "buffer" : 0,
            "byteLength" : 5928,
            "byteOffset" : 8892,
            "target" : 34962
        },
        {
            "buffer" : 0,
            "byteLength" : 8892,
            "byteOffset" : 14820,
            "target" : 34962
        },
        {
            "buffer" : 0,
            "byteLength" : 8232,
            "byteOffset" : 23712,
            "target" : 34963
        },
        {
            "buffer" : 0,
            "byteLength" : 2400,
            "byteOffset" : 31944,
            "target" : 34962
        },
        {
            "buffer" : 0,
            "byteLength" : 2400,
            "byteOffset" : 34344,
            "target" : 34962
        },
        {
            "buffer" : 0,
            "byteLength" : 2376,
            "byteOffset" : 36744,
            "target" : 34963
        },
        {
            "buffer" : 0,
            "byteLength" : 1320,
            "byteOffset" : 39120,
            "target" : 34962
        },
        {
            "buffer" : 0,
            "byteLength" : 880,
            "byteOffset" : 40440,
            "target" : 34962
        },
        {
            "buffer" : 0,
            "byteLength" : 880,
            "byteOffset" : 41320,
            "target" : 34962
        },
        {
            "buffer" : 0,
            "byteLength" : 1320,
            "byteOffset" : 42200,
            "target" : 34962
        },
        {
            "buffer" : 0,
            "byteLength" : 1188,
            "byteOffset" : 43520,
            "target" : 34963
        },
        {
            "buffer" : 0,
            "byteLength" : 1464,
            "byteOffset" : 44708,
            "target" : 34962
        },
        {
            "buffer" : 0,
            "byteLength" : 976,
            "byteOffset" : 46172,
            "target" : 34962
        },
        {
            "buffer" : 0,
            "byteLength" : 976,
            "byteOffset" : 47148,
            "target" : 34962
        },
        {
            "buffer" : 0,
            "byteLength" : 1464,
            "byteOffset" : 48124,
            "target" : 34962
        },
        {
            "buffer" : 0,
            "byteLength" : 1188,
            "byteOffset" : 49588,
            "target" : 34963
        },
        {
            "buffer" : 0,
            "byteLength" : 288,
            "byteOffset" : 50776,
            "target" : 34962
        },
        {
            "buffer" : 0,
            "byteLength" : 192,
            "byteOffset" : 51064,
            "target" : 34962
        },
        {
            "buffer" : 0,
            "byteLength" : 288,
            "byteOffset" : 51256,
            "target" : 34962
        },
        {
            "buffer" : 0,
            "byteLength" : 72,
            "byteOffset" : 51544,
            "target" : 34963
        }
    ],
    "buffers" : [
        {
            "byteLength" : 51616,
            "uri" : "data:application/octet-stream;base64,"
        }
    ]
}
